<svg xmlns="http://www.w3.org/2000/svg" viewBox="0 0 132 100"><defs><style>.cls-1{fill:#ee6b68;}.cls-2{fill:#813e94;}.cls-3{fill:#a7cf5f;}</style></defs><g id="Isolation_Mode" data-name="Isolation Mode"><path class="cls-1" d="M66.55,79.81a33.53,33.53,0,0,1-4.65-1L29.78,86.48l.69,4.44a4.27,4.27,0,0,0,.26.91,2.8,2.8,0,0,0,.39.67,1.51,1.51,0,0,0,.56.38.87.87,0,0,0,.57.07l38-9.1c-1.15-1.87-2.5-3.93-3.63-4.09"/><path class="cls-1" d="M72.77,39.52a4,4,0,0,1-5.3-2.12c0-.1-.08-.2-.11-.3C66,33.68,65.24,32,63.83,28.57c-1-2.42.36-4.61,2.93-5.55a4.3,4.3,0,0,1,5.72,2.06,3.83,3.83,0,0,1,.22.56c1.43,4.35,0,6.15-3.31,9.74l.3.79A1.72,1.72,0,0,0,72.91,35l-.14-.24c.86-.64,1.29-1,2.16-1.57.13.41.2.6.33,1A4,4,0,0,1,73,39.43l-.25.09M68.68,11.9a2.05,2.05,0,0,0-.55-.87,1.6,1.6,0,0,0-.82-.41,2.12,2.12,0,0,0-1,.06,3.38,3.38,0,0,0-1,.54l-8.63,7.25,2.51,8.26a2.68,2.68,0,0,1,1.32-1.21,2.53,2.53,0,0,1,1.71-.22v2.42a1.14,1.14,0,0,0-.85.13,1.85,1.85,0,0,0-.93,2.45l0,0c2.11,4.67,3.17,7,5.27,11.68l-1.62.74.43,1.4a4,4,0,0,1,1.65.49c1.73.93,1.73,1,2.89-.6a2.29,2.29,0,0,1,2.54-.86,11,11,0,0,1,5.07,3c1.62,2.11,3,4,4.3,5.86Z"/><path class="cls-1" d="M70.14,26.65c-.57-1.59-1.62-1.84-2.64-1.47a1.75,1.75,0,0,0-1.31,2.1,1.73,1.73,0,0,0,.11.32c.82,2.13,1.2,3.19,2.06,5.32,2.42-2.42,2.65-3.81,1.79-6.25"/><path class="cls-2" d="M56.4,36.62a12.59,12.59,0,0,1-4,10c.21.4.41.79.61,1.14.69,1.31,1.47,2.57,2.21,3.87l.45-.14a6.24,6.24,0,0,0,.07-1.14,2.69,2.69,0,0,1,4-2.84c1.48.66,1.48.66,1.91-1a2.73,2.73,0,0,1,2.74-2.42L64,42.71l-.6.29q-3.61-7.66-7.31-15.29c.67-.33,1-.47,1.68-.79l1,.73a2.74,2.74,0,0,1,.3-1l-2.51-8.24-8.46,7.15a12.69,12.69,0,0,1,8.28,11"/><path class="cls-2" d="M56,76.53c-3.88-1.87-8-1.72-12.08-.89-1.27.27-2.68.57-3.45-.81s-.12-2.62.73-3.76c1.36-1.8,3.37-1.91,5.39-2.1a35.69,35.69,0,0,0,6.34-.87c2.26-.63,2.69-1.67,1.72-3.77-1.73-3.71-3.63-7.32-5.53-11-.56-1.13-1.2-2.41-1.9-3.76A13.39,13.39,0,0,1,44.6,50h-.82A12.67,12.67,0,0,1,31.35,39.7l-6.66,5.61a1.9,1.9,0,0,0-.41.48,3.23,3.23,0,0,0-.29.66,3.37,3.37,0,0,0-.15.78,3.57,3.57,0,0,0,0,.8l5.94,38.44L61.9,78.79A40,40,0,0,1,56,76.53"/><path class="cls-2" d="M54.11,36.76A10.36,10.36,0,0,0,46,27.36L33.46,37.92v.18a10.35,10.35,0,0,0,10.32,9.67h.68a10.28,10.28,0,0,0,1.65-.25c-1.56-3.06-3.18-6.25-4.39-8.72A9.13,9.13,0,0,1,41,36.28a2.12,2.12,0,0,1,1-2.36,2.27,2.27,0,0,1,2.71.07,10.2,10.2,0,0,1,2.32,2.54c1.21,2.09,2.8,5.24,4.23,8a10.3,10.3,0,0,0,2.79-7.72"/><path class="cls-3" d="M43.77,27.12h-.69a10.31,10.31,0,0,0-9.67,10.8L46,27.35a10.35,10.35,0,0,0-2.22-.25"/><path class="cls-3" d="M23.84,47.22a3.37,3.37,0,0,1,.15-.78,3.23,3.23,0,0,1,.29-.66,1.94,1.94,0,0,1,.41-.49l6.66-5.59c-.08-.48-.14-1-.18-1.45A12.66,12.66,0,0,1,43,24.86a12.8,12.8,0,0,1,5.06.73l8.46-7.15-3-10.07A2,2,0,0,0,53,7.5a1.67,1.67,0,0,0-.78-.43,1.85,1.85,0,0,0-1,.06,3,3,0,0,0-1.06.54L9.59,41.81a2,2,0,0,0-.43.49,3,3,0,0,0-.29.66,4.22,4.22,0,0,0-.14.79,3.39,3.39,0,0,0,0,.78l6.6,42.91a3.35,3.35,0,0,0,.24.89A2.52,2.52,0,0,0,16,89a1.77,1.77,0,0,0,.51.43,1,1,0,0,0,.56.07l12.71-3L23.87,48a5.21,5.21,0,0,1,0-.79"/><path class="cls-1" d="M82,34.11a1.68,1.68,0,0,1-2.15-1,1.21,1.21,0,0,1,0-.18c-1-3.58-1.53-5.3-2.55-8.92A2,2,0,1,1,81,23c.92,3.63,1.36,5.37,2.27,8.94A1.7,1.7,0,0,1,82.2,34l-.2.05m3.72-2.76c-.82-3.62-1.21-5.41-2.08-9-.54-2.42-2.42-3.63-5.08-2.94a3.8,3.8,0,0,0-2.41,1.74l-.84-.59L73.55,21c1,3.33,3.62,11.58,6.15,20,.77-.27,1.55-.51,2.32-.74-.66-2.2-1.21-3.81-1.28-4.28a3,3,0,0,0,2.42.29c1.76-.46,3.21-2.1,2.56-5"/><path class="cls-1" d="M91.54,32c-1.2.21-2-.45-2.22-1.84-.47-2.42,1.83-4.42,3-5.4.29,1.9.44,2.84.75,4.74a2,2,0,0,1-1.32,2.45l-.21,0m2.74-11.57a3.88,3.88,0,0,0-4.19-3.52,4.17,4.17,0,0,0-.72.14,4.53,4.53,0,0,0-3.92,2.89c1,.32,1.53.5,2.52.85.14-.84.76-1.3,1.76-1.47a1.61,1.61,0,0,1,1.89,1.51,3.79,3.79,0,0,0,.13.82c-1.57,2.13-5.83,4.36-4.83,9.22.66,3.09,2.74,3.94,4.48,3.63a2.87,2.87,0,0,0,2.34-1.78l.69.87L96,33.37c-.71-5.19-1.06-7.78-1.78-12.95"/><path class="cls-1" d="M104.94,18.34c-.11-1.05.73-1.68,1.86-1.76a1.77,1.77,0,0,1,2.1,1.4,1.75,1.75,0,0,1,0,.46c.14,2.28-.49,3.42-3.52,4.94l-.48-5m6.85,7.74v-1c-1,.33-1.54.5-2.55.85v.25a1.77,1.77,0,0,1-1.84,1.69,1.75,1.75,0,0,1-1.65-1.41,2.37,2.37,0,0,0-.08-.74c3.15-1.57,6.26-3.69,6-7.57-.16-2.41-2.42-3.85-5-3.62s-4.7,1.74-4.42,4.08c.4,3.26.58,4.84,1,8.13.21,2.34,2.17,3.48,4.58,3.26s4.11-1.62,4-4"/><path class="cls-1" d="M122.61,29.52c-1,0-1.48-.07-2.42-.1q.18-5.79.37-11.57c0-1.06-1-1.64-2.11-1.65s-2.17.53-2.17,1.59V29.36h-2.41q-.18-7.5-.38-15h1.85l.64.7a4.19,4.19,0,0,1,3-.88c2.65,0,4.37,1.58,4.26,3.72q-.33,5.82-.64,11.63"/><path class="cls-1" d="M88.57,62.26c-.41-1.46-4-13.21-6.18-20.54-.77.23-1.53.47-2.3.73,1.8,5.84,3.62,11.64,4.83,15.82q1.41,2.43,2.32,4.36l1.31-.38"/><path class="cls-1" d="M87.28,62.66q-.93-2-2.34-4.35c.61,1.95,1.1,3.55,1.43,4.63l.91-.28"/><path class="cls-1" d="M87.21,45.57,85.66,46c.64-1.79,1-2.68,1.7-4.44,1-.25,1.46-.36,2.42-.57-1.09,1.83-1.61,2.75-2.6,4.6"/><path class="cls-1" d="M92.31,61c-.86.2-1.3.31-2.14.54q-2-7.25-3.86-14.5c1-.27,1.48-.39,2.42-.62Q90.49,53.62,92.26,61"/><path class="cls-1" d="M102.89,59c-.87.11-1.31.18-2.18.31-.6-3.82-1.21-7.63-1.78-11.45a2,2,0,0,0-3.82.67l2.18,11.37c-.88.16-1.3.26-2.17.44L92,45.74l1.64-.34.7.6A3.63,3.63,0,0,1,97,44.53c2.41-.4,4.19.81,4.47,2.93Q102.2,53.24,103,59"/><path class="cls-1" d="M105.6,47.1c-.11-1.06.64-1.67,1.67-1.76s1.85.4,1.94,1.89c.15,2.28-.42,3.42-3.14,4.91-.19-2-.29-3-.47-5m6.19,6.81-2.3.85V55a1.57,1.57,0,1,1-3.14.24h0a2.73,2.73,0,0,0-.07-.74c3-1.64,5.63-3.8,5.4-7.51a4,4,0,0,0-4.24-3.67l-.34,0c-2.49.19-4.26,1.69-4,4,.38,3.25.57,4.83.95,8.13a3.9,3.9,0,0,0,7.75-.6V54"/><path class="cls-1" d="M119.14,54.46a1.79,1.79,0,0,1-1.65,1.91h-.18c-1.11,0-1.7-.73-1.7-2,0-2.21,2.42-3.56,3.62-4.21l-.12,4.26M117.9,43a4.2,4.2,0,0,0-4,1.87L116,46.07a1.74,1.74,0,0,1,1.88-1,1.39,1.39,0,0,1,1.46,1.33,1.51,1.51,0,0,1,0,.3v.74c-2.64,1.93-6,3.37-6,7.25.07,2.79,1.81,3.89,3.46,3.9a2.65,2.65,0,0,0,2.41-1.15l.49.89h1.47l.62-11.56c.12-2.28-1.46-3.73-3.89-3.78"/><path class="cls-1" d="M98.24,66.38c.07.48.11.71.17,1.21h-3a1.4,1.4,0,0,0-.11-.65,2,2,0,0,0-2.42-1.33A2.08,2.08,0,0,0,91,67.89a2.12,2.12,0,0,0,.14.55c.38,1.72,2.87,3.24,4.5,4.53,2.15,1.71,4.28,3.72,4.65,6.4s-.52,5.12-3.63,5.74A4.22,4.22,0,0,1,91.6,82V82c-.11-.46-.17-.67-.28-1.12,1.07,0,1.6-.07,2.65-.08a3.32,3.32,0,0,0,.13.61,1.94,1.94,0,0,0,2.26,1.36A1.87,1.87,0,0,0,98,80.67a1.53,1.53,0,0,0-.07-.36,5.74,5.74,0,0,0-.81-2.26c-1.34-2-3.63-3.52-5.63-5a7.22,7.22,0,0,1-3.25-4.37c-.64-2.53.78-4.77,4.19-5.43,3.07-.6,5.51.49,5.9,3.24"/><path class="cls-1" d="M109.75,83.21a66.28,66.28,0,0,0-7.18.51Q101.36,73,100.05,62.34a84.52,84.52,0,0,1,9.13-.64c0,.95,0,1.43.07,2.41a54.68,54.68,0,0,0-5.9.33c.24,2.72.36,4.07.59,6.79,1.21-.11,1.9-.16,3.17-.22l.12,2.42c-1.21,0-1.85.11-3.08.21.25,3,.39,4.46.64,7.42,1.95-.16,2.93-.22,4.9-.27v2.42"/><path class="cls-1" d="M118.47,66.58c-.09,1.21-.13,1.86-.22,3.09-.12,1.75-1,2.26-2.58,2.2H114l.19-7.76,1.8.06c1.88.09,2.57.75,2.41,2.42m-1.76-4.83c-2.22-.1-3.34-.13-5.55-.11q0,10.74.13,21.52h2.42c.09-3.55.13-5.34.22-8.89.85,0,1.28,0,2.13.07,3.13.16,4.75-1.66,5-4,.14-1.56.23-2.35.39-3.92.25-2.62-1.38-4.51-4.77-4.68"/></g></svg>